<?xml version="1.0" standalone="no"?>
<!DOCTYPE svg PUBLIC "-//W3C//DTD SVG 20010904//EN"
 "http://www.w3.org/TR/2001/REC-SVG-20010904/DTD/svg10.dtd">
<svg version="1.0" xmlns="http://www.w3.org/2000/svg"
 width="500.000000pt" height="500.000000pt" viewBox="0 0 500.000000 500.000000"
 preserveAspectRatio="xMidYMid meet">

<g transform="translate(0.000000,500.000000) scale(0.100000,-0.100000)"
fill="#000000" stroke="none">
<path d="M2770 4560 c30 -5 69 -14 85 -20 27 -9 25 -9 -15 -5 -25 3 -83 10
-129 15 -47 5 -87 8 -89 6 -2 -2 23 -12 55 -22 32 -9 51 -19 41 -21 -9 -2 -19
-10 -22 -18 -5 -15 30 -29 104 -40 47 -8 106 -33 97 -42 -3 -3 -29 3 -57 12
-28 9 -54 14 -57 11 -4 -3 -1 -6 5 -6 7 0 12 -4 12 -9 0 -7 -123 -51 -144 -51
-3 0 -3 14 1 30 7 36 -2 37 -47 6 -42 -28 -171 -64 -295 -81 -119 -17 -286
-53 -301 -66 -7 -6 -11 -16 -8 -23 3 -8 -6 -15 -24 -19 -16 -3 -98 -36 -183
-72 -157 -68 -262 -127 -276 -157 -4 -9 -90 -71 -191 -138 -155 -103 -203
-141 -316 -253 -172 -170 -344 -387 -410 -514 -29 -57 -9 -36 40 42 25 42 49
74 51 71 3 -3 -11 -31 -30 -63 -60 -100 -106 -199 -136 -295 -38 -120 -83
-297 -78 -311 2 -6 9 16 16 49 15 66 91 287 97 281 3 -2 -5 -31 -16 -63 -48
-143 -102 -390 -106 -484 l-4 -95 29 145 c23 119 72 309 56 218 -3 -16 1 -33
10 -41 10 -11 14 -29 10 -64 l-4 -48 11 55 c6 30 15 58 20 61 5 3 29 66 54
140 48 138 101 256 111 245 6 -6 -8 -43 -48 -134 -17 -38 -18 -61 -13 -260 l5
-217 -36 50 c-20 28 -40 52 -45 53 -13 5 -13 1 4 -39 7 -19 17 -45 21 -59 7
-23 6 -24 -9 -11 -16 13 -17 12 -10 -15 3 -16 15 -44 25 -62 11 -19 24 -66 30
-105 6 -40 17 -93 25 -119 8 -26 14 -69 14 -97 0 -27 4 -51 9 -53 5 -2 23 -74
40 -161 l30 -158 89 -169 c49 -92 107 -193 127 -225 38 -57 122 -133 179 -162
l31 -16 -23 25 c-12 13 -22 28 -22 33 0 5 -17 26 -37 47 -36 36 -41 65 -7 37
16 -13 16 -12 6 8 -8 14 -9 24 -2 28 5 3 10 1 10 -5 0 -5 35 -47 77 -91 77
-80 179 -159 206 -159 23 0 595 -175 605 -185 2 -2 -13 -2 -34 0 -32 4 -34 3
-14 -4 24 -9 23 -9 -10 -12 -89 -6 -197 5 -334 37 -82 19 -154 34 -160 34 -6
-1 23 -19 64 -41 62 -33 69 -39 40 -34 -23 3 -11 -4 37 -22 39 -16 74 -31 78
-34 3 -4 -29 0 -72 8 -48 9 -112 31 -168 59 -49 24 -81 38 -70 29 10 -8 62
-37 115 -64 90 -45 119 -54 325 -95 11 -2 -1 -4 -27 -5 -26 0 -49 -5 -52 -10
-8 -12 80 -21 249 -23 145 -2 147 -2 50 -7 -95 -6 -98 -7 -51 -15 64 -12 179
-1 301 29 55 13 141 33 190 45 50 11 153 46 230 77 77 31 147 56 155 56 8 -1
38 6 65 15 28 8 92 16 145 17 52 1 109 6 125 10 55 14 20 -4 -76 -40 -109 -41
-66 -37 64 6 49 16 92 27 97 24 5 -3 44 8 87 24 43 17 98 37 124 46 77 28 206
132 299 242 48 57 98 107 115 114 98 40 130 71 219 206 67 102 85 137 81 156
-5 18 -1 26 19 35 18 8 26 20 26 36 0 13 14 57 31 97 16 41 37 91 44 112 8 21
50 111 94 200 43 89 94 205 112 257 33 92 48 117 85 138 17 10 19 25 19 166 0
86 -2 156 -5 156 -3 0 -11 4 -18 9 -11 7 -11 12 -1 28 10 16 9 32 -4 84 -8 35
-18 88 -22 118 -4 30 -35 118 -72 205 -131 302 -155 362 -159 391 -6 45 -63
121 -157 211 -46 43 -111 119 -146 167 -141 201 -275 323 -450 411 -33 17 -57
24 -63 18 -5 -5 10 -17 40 -29 27 -11 76 -41 110 -66 34 -25 68 -47 74 -50 7
-2 10 -8 6 -12 -4 -4 -36 11 -70 34 -78 52 -301 162 -388 191 -36 12 -92 25
-125 28 -41 3 -74 14 -105 33 -25 16 -47 24 -51 18 -3 -5 -34 1 -75 17 -49 19
-93 27 -154 30 -79 3 -81 3 -30 -6z m70 -600 c147 -35 227 -70 345 -150 68
-46 205 -178 238 -230 9 -14 34 -32 54 -39 104 -37 222 -142 273 -241 48 -95
63 -237 35 -345 -29 -110 -104 -217 -194 -276 -39 -24 -61 -51 -103 -122 -98
-168 -272 -320 -448 -395 -135 -57 -229 -76 -380 -76 -240 -1 -431 68 -619
224 -58 48 -171 175 -171 191 0 4 16 5 35 2 27 -4 52 -22 103 -76 144 -150
299 -234 500 -273 237 -45 499 21 707 179 73 56 177 171 215 239 l22 40 -23
-7 c-13 -5 -67 -8 -119 -8 -85 0 -104 4 -173 33 -141 59 -234 157 -282 299
-64 188 1 409 154 530 79 63 213 111 308 111 l35 0 -42 50 c-93 111 -286 229
-445 271 -101 27 -282 36 -379 20 -203 -35 -363 -117 -506 -261 -60 -61 -86
-80 -115 -86 -34 -6 -36 -5 -27 12 21 39 134 153 204 207 141 107 225 142 453
190 11 3 74 5 140 6 89 1 142 -4 205 -19z m-782 -719 c96 94 98 95 137 90 31
-5 43 -12 53 -33 21 -45 4 -78 -90 -174 l-89 -92 95 -92 c53 -51 94 -96 91
-99 -2 -4 0 -13 5 -20 5 -8 0 -27 -12 -47 -18 -30 -25 -34 -63 -34 -41 0 -46
4 -134 95 l-91 96 -87 -91 c-78 -81 -93 -92 -131 -97 -55 -7 -82 15 -82 66 0
33 10 46 95 131 l95 95 -94 95 c-61 61 -95 104 -97 120 -4 39 10 69 34 75 69
15 69 15 170 -84 l97 -96 98 96z m-306 -1561 c22 -69 43 -128 47 -132 4 -5 27
53 51 127 35 107 48 135 62 135 10 0 18 -4 18 -8 0 -4 -25 -82 -55 -172 -54
-162 -55 -166 -55 -282 l0 -118 -40 0 -40 0 0 128 c0 106 -4 139 -21 188 -12
32 -36 105 -54 162 l-34 103 40 -3 40 -3 41 -125z m438 115 c47 -24 70 -74 83
-180 14 -122 -1 -269 -33 -320 -57 -92 -189 -86 -235 11 -43 91 -43 337 0 428
33 68 117 96 185 61z m220 -232 c0 -137 4 -254 9 -261 4 -8 19 -12 32 -10 l24
3 3 258 2 257 41 0 40 0 -3 -260 -3 -260 -26 -26 c-18 -18 -41 -28 -71 -31
-54 -6 -82 7 -108 50 -18 29 -20 52 -20 280 l0 247 40 0 40 0 0 -247z m558
214 c3 -26 2 -27 -17 -15 -16 9 -26 10 -39 2 -33 -21 -44 -81 -44 -244 0 -163
11 -223 44 -244 13 -8 23 -7 39 2 19 12 20 11 17 -15 -3 -25 -7 -28 -43 -31
-51 -3 -96 24 -119 72 -43 91 -43 341 0 432 23 48 68 75 119 72 36 -3 40 -6
43 -31z m197 11 c2 -13 23 -138 45 -278 23 -140 43 -261 45 -268 4 -10 -6 -12
-38 -10 -42 3 -42 3 -47 48 l-5 45 -51 3 -52 3 -7 -51 c-6 -40 -11 -50 -26
-50 -10 0 -19 4 -19 10 0 5 18 121 41 257 22 136 39 263 37 281 -4 31 -3 32
34 32 31 0 38 -4 43 -22z m239 -45 c14 -38 41 -111 61 -163 20 -52 42 -111 48
-130 10 -30 12 -5 15 163 2 189 3 197 22 197 19 0 20 -8 20 -290 l0 -290 -28
0 c-27 0 -30 6 -82 148 -29 81 -64 174 -76 207 l-23 60 -1 -207 c0 -201 -1
-208 -20 -208 -19 0 -20 7 -20 264 0 148 -4 276 -10 290 -9 25 -8 26 29 26 39
0 39 0 65 -67z m-39 -833 c-19 -31 -319 -167 -347 -158 -5 2 70 40 168 85 202
92 187 86 179 73z m-60 -150 c-3 -5 -12 -10 -18 -10 -7 0 -6 4 3 10 19 12 23
12 15 0z"/>
<path d="M2096 1748 c-27 -42 -38 -126 -34 -262 3 -104 8 -139 23 -171 42 -84
88 -31 105 119 23 198 -38 400 -94 314z"/>
<path d="M3107 1590 c-3 -14 -11 -56 -17 -95 -6 -38 -13 -82 -16 -97 -5 -27
-4 -28 35 -28 48 0 48 -2 25 132 -19 114 -20 119 -27 88z"/>
<path d="M4391 3495 c0 -5 6 -21 14 -35 8 -14 14 -20 14 -15 0 6 -6 21 -14 35
-8 14 -14 21 -14 15z"/>
<path d="M656 2715 c-9 -26 -7 -32 5 -12 6 10 9 21 6 23 -2 3 -7 -2 -11 -11z"/>
<path d="M441 2484 c0 -11 3 -14 6 -6 3 7 2 16 -1 19 -3 4 -6 -2 -5 -13z"/>
<path d="M2908 663 c6 -2 18 -2 25 0 6 3 1 5 -13 5 -14 0 -19 -2 -12 -5z"/>
<path d="M1688 553 c6 -2 18 -2 25 0 6 3 1 5 -13 5 -14 0 -19 -2 -12 -5z"/>
</g>
</svg>
